<svg version="1.0" xmlns="http://www.w3.org/2000/svg" width="240" height="240" viewBox="0 0 180 180"><path d="M0 82c0 45.1.2 82 .4 82 .1 0 5.4-2.4 11.7-5.4 6.3-2.9 15.2-6.8 19.9-8.7 4.7-1.8 9.6-4 11-4.8 1.7-1 1.1-.1-1.7 2.8-6.3 6.6-10.5 16-11.1 24.8l-.5 7.3H53v-4.8c0-2.6.5-7.9 1.1-11.7.6-3.9 1.3-8.4 1.5-10 .2-1.7.8-4.8 1.2-7l.7-4 2.4 3.3c1.3 1.8 2.5 3.1 2.8 2.9.5-.6-1.3-7.9-3-12.2l-1.2-3-.7 3c-.4 1.9-.5 1.3-.1-1.5 1.3-11.3-.7-30.4-3-28.1-3.1 3.1-6.9-.2-8.2-6.9-.4-1.9-1.8-5.3-3.2-7.4-3-4.7-4-10.4-2.1-12.8 2-2.5 7.4-2.7 9.3-.3 1.5 1.9 1.6 1.5.8-5.5-.4-4.1-.8-10.9-.8-15 0-6.5.5-8.5 3.2-14 4.5-9.1 10.7-12.5 21.8-12.1 4.9.2 6.7.1 12.3-.5 2.9-.3 7.3-.1 9.7.5 3.3.8 5.6.8 8.9-.1 6.2-1.6 8.4-.4 14.1 8.2 6.7 10.1 7.8 14.2 7 27.3l-.7 10.7 3-1.7c4.3-2.5 6.2-.6 6.2 6.1v5.1l12.9.1c12.8 0 13 .1 15.8 2.8 2.7 2.7 2.7 2.8.8 4.2-1 .8-2.8 1.5-3.9 1.5-19.2 1.1-21.2 1.2-25.8.4-3.6-.7-3.7-.6-4.8 3.4-1 4-3.4 6.2-5.6 5.4-1.5-.5-4.5 8-5.1 14.4-.3 3.7.1 6.9 1.6 11.1 2.1 5.9 2.8 9.8 1 5.2l-1-2.5-1.3 2.5c-.8 1.4-1.6 4.2-2 6.3-.8 4.2.5 4.3 3.2.5 1.8-2.5 4-2.3 5.2.4 1.6 3.7 6.8 24.9 7.6 30.6l.7 5.2h20l-.5-8.3c-.5-9.5-2.9-14.9-10.5-23.6-2.4-2.8-4.3-5.1-4.1-5.1 1.1 0 14.1 4.4 25 8.4 7 2.5 13.2 4.6 13.8 4.6.7 0 1-25.8 1-78V0H0v82z"/><path d="m69 65.9-4.4 2.2c-3.9 1.9-5.5 4.5-3.7 6.1 1.1 1 1.2 1 .7 0-.4-.6-.2-1.2.3-1.2.6 0 1.1.6 1.1 1.2 0 .7.6.2 1.3-1.1.6-1.4 2.5-2.8 4.1-3.2 4.6-1.3 5.2.2.8 2.1-2.1 1-4.2 2.6-4.6 3.5-.8 2.3.1 3.2 1.6 1.7.7-.7 2.6-1.2 4.3-1.2 1.7 0 3.6-.5 4.3-1.2.9-.9 1.5-.9 2.4 0 1.5 1.5 3.1 1.6 2.2 0-.5-.7 0-.9 1.4-.6 1.6.4 2.2 0 2.6-1.8.4-1.4.2-3.3-.3-4.3-1.5-2.7-10.4-4.1-14.1-2.2zM100.8 67.6c-2.6.8-5 1.9-5.3 2.4-.8 1.3 1.7 5 3.3 5 .7 0 1 .4.7 1-.7 1.1 1.8 1.4 2.9.3 1.1-1.2 7.7-.3 10.3 1.4 1.3.9 2.6 1.3 2.9 1.1 1-1.1-3.3-4.9-7.1-6.2l-4-1.5h3.7c4.3-.1 7 .8 6.2 2-.7 1.2.3 1.1 2.7-.2 2.9-1.5.9-3.5-5.6-5.4-2.9-.8-5.5-1.5-5.7-1.4-.1 0-2.4.7-5 1.5zM131 79.7c.1 1.9 1.6 3.1 2.9 2.4.7-.5 1-1.4.7-2-.8-1.2-3.6-1.5-3.6-.4zM42 82.6c0 .9.7 1.4 1.7 1.2 2.5-.5 2.8-2.8.4-2.8-1.2 0-2.1.6-2.1 1.6zM127 87.6c0 .8.5 1.2 1 .9.6-.3 1-1 1-1.6 0-.5-.4-.9-1-.9-.5 0-1 .7-1 1.6zM49 88.4c0 .9.5 1.6 1 1.6.6 0 1-.4 1-.9 0-.6-.4-1.3-1-1.6-.5-.3-1 .1-1 .9zM106.6 94c1.8 1.9 3.5 4.5 3.8 5.6.6 2.1.6 2.1-4.1.7-2.7-.8-5.4-1.7-6-1.9-.7-.2-1-1-.7-1.9.6-1.5 0-1.5-4.3.2-3.2 1.2-5.7 1.1-8.5-.3-1.5-.8-3.7-1.4-4.9-1.4-2.1 0-2.2.1-.4 2 1 1.1 1.4 2.1.9 2.1-.5.1-1.8.3-2.9.4-3.3.3-9.5 3.6-9.5 5 0 .7 2.3 2.4 5.1 3.9 4.6 2.3 6.2 2.6 15.7 2.6 5.8 0 10.3-.2 10.1-.5-.3-.2-5-.5-10.6-.6-5.5-.1-10.6-.5-11.3-.9-2.4-1.5.2-3 5.3-3.1 2.9 0 4.6-.3 3.9-.6-2.2-.9-.2-2.3 3.5-2.3 2.6 0 3.4.4 3 1.4-.4.9.2 1.3 1.9 1.3 1.3 0 2.1-.3 1.9-.7-.8-1.3 2.5-2.1 4.3-1 1.5.8 1.4.9-.5 1-2.2 0-2.2.1-.5 1.8 1.5 1.6 2 1.7 3.7.5 1.1-.7 2.8-1.3 3.7-1.3 1 0 2.3-1.1 2.9-2.4 1.3-2.7-.5-6-5.8-10.6-2.6-2.3-2.6-2.2.3 1zM70.1 97.4c-1.3 1.3-2.1 3.2-1.9 4.1.2 1.2 1 .5 2.6-2.4 2.7-4.7 2.5-5.1-.7-1.7zM89 118.9c0 .5.5 2.2 1 3.7l1.1 2.8 1.4-2.8c2-3.9 1.9-4.6-1-4.6-1.4 0-2.5.4-2.5.9z"/><path d="M114.5 123c-2.9 3.2-17.2 9.9-21.2 10-.7 0-1.3-1.1-1.3-2.5 0-3.1-1.7-3.3-2.2-.3-.2 1.8-.9 2.3-2.8 2.1-4.6-.2-10.2-2.1-12.3-4.1-2.2-1.9-7.7-3.5-7.7-2.2 0 .4 1.5 2.1 3.3 3.7 1.7 1.7 5 5.2 7.2 7.7 2.2 2.6 5.4 5.5 7.1 6.5 4 2.4 10.1 1.9 12.1-.9.8-1.1 2.1-2 2.8-2 .8 0 2.1-1.2 2.9-2.8.8-1.5 3.1-4.3 5.1-6.2 3.8-3.6 10-11 9.2-11-.2 0-1.2.9-2.2 2zM107.5 147.1c-2.7 1.1-5.5 2.5-6.2 3-3.2 2.7-14 3-20.2.6-2.3-1-5.7-1.7-7.7-1.7-3.2 0-3.7.4-5.5 4.5l-2 4.6 2.8 4.5c2.6 4.3 3 4.5 6.3 3.9 1.9-.4 6-1.5 9-2.6 6.4-2.3 12.1-2.4 15.8-.5 3.9 2 9.5 2.9 13 2.1 5.1-1.1 8-10.9 5.1-17.1-1.8-3.6-4-3.9-10.4-1.3zM87.1 169.6c0 1.1.3 1.4.6.6.3-.7.2-1.6-.1-1.9-.3-.4-.6.2-.5 1.3zM88.1 172.5c.1 1.9 1.8 5.1 1.8 3.5 0-.8-.4-2.2-.9-3-.5-.8-.9-1.1-.9-.5z"/></svg>