<?xml version="1.0" standalone="no"?>
<!DOCTYPE svg PUBLIC "-//W3C//DTD SVG 20010904//EN"
 "http://www.w3.org/TR/2001/REC-SVG-20010904/DTD/svg10.dtd">
<svg version="1.0" xmlns="http://www.w3.org/2000/svg"
 width="180.000000pt" height="180.000000pt" viewBox="0 0 180.000000 180.000000"
 preserveAspectRatio="xMidYMid meet">
<metadata>
Created by potrace 1.14, written by Peter Selinger 2001-2017
</metadata>
<g transform="translate(0.000000,180.000000) scale(0.100000,-0.100000)"
fill="#000000" stroke="none">
<path d="M0 980 c0 -451 2 -820 4 -820 1 0 54 24 117 54 63 29 152 68 199 87
47 18 96 40 110 48 17 10 11 1 -17 -28 -63 -66 -105 -160 -111 -248 l-5 -73
117 0 116 0 0 48 c0 26 5 79 11 117 6 39 13 84 15 100 2 17 8 48 12 70 l7 40
24 -33 c13 -18 25 -31 28 -29 5 6 -13 79 -30 122 l-12 30 -7 -30 c-4 -19 -5
-13 -1 15 13 113 -7 304 -30 281 -31 -31 -69 2 -82 69 -4 19 -18 53 -32 74
-30 47 -40 104 -21 128 20 25 74 27 93 3 15 -19 16 -15 8 55 -4 41 -8 109 -8
150 0 65 5 85 32 140 45 91 107 125 218 121 49 -2 67 -1 123 5 29 3 73 1 97
-5 33 -8 56 -8 89 1 62 16 84 4 141 -82 67 -101 78 -142 70 -273 l-7 -107 30
17 c43 25 62 6 62 -61 l0 -51 129 -1 c128 0 130 -1 158 -28 27 -27 27 -28 8
-42 -10 -8 -28 -15 -39 -15 -192 -11 -212 -12 -258 -4 -36 7 -37 6 -48 -34
-10 -40 -34 -62 -56 -54 -15 5 -45 -80 -51 -144 -3 -37 1 -69 16 -111 21 -59
28 -98 10 -52 l-10 25 -13 -25 c-8 -14 -16 -42 -20 -63 -8 -42 5 -43 32 -5 18
25 40 23 52 -4 16 -37 68 -249 76 -306 l7 -52 100 0 100 0 -5 83 c-5 95 -29
149 -105 236 -24 28 -43 51 -41 51 11 0 141 -44 250 -84 70 -25 132 -46 138
-46 7 0 10 258 10 780 l0 780 -900 0 -900 0 0 -820z"/>
<path d="M690 1141 c-8 -4 -28 -14 -44 -22 -39 -19 -55 -45 -37 -61 11 -10 12
-10 7 0 -4 6 -2 12 3 12 6 0 11 -6 11 -12 0 -7 6 -2 13 11 6 14 25 28 41 32
46 13 52 -2 8 -21 -21 -10 -42 -26 -46 -35 -8 -23 1 -32 16 -17 7 7 26 12 43
12 17 0 36 5 43 12 9 9 15 9 24 0 15 -15 31 -16 22 0 -5 7 0 9 14 6 16 -4 22
0 26 18 4 14 2 33 -3 43 -15 27 -104 41 -141 22z"/>
<path d="M1008 1124 c-26 -8 -50 -19 -53 -24 -8 -13 17 -50 33 -50 7 0 10 -4
7 -10 -7 -11 18 -14 29 -3 11 12 77 3 103 -14 13 -9 26 -13 29 -11 10 11 -33
49 -71 62 l-40 15 37 0 c43 1 70 -8 62 -20 -7 -12 3 -11 27 2 29 15 9 35 -56
54 -29 8 -55 15 -57 14 -1 0 -24 -7 -50 -15z"/>
<path d="M1310 1003 c1 -19 16 -31 29 -24 7 5 10 14 7 20 -8 12 -36 15 -36 4z"/>
<path d="M420 974 c0 -9 7 -14 17 -12 25 5 28 28 4 28 -12 0 -21 -6 -21 -16z"/>
<path d="M1270 924 c0 -8 5 -12 10 -9 6 3 10 10 10 16 0 5 -4 9 -10 9 -5 0
-10 -7 -10 -16z"/>
<path d="M490 916 c0 -9 5 -16 10 -16 6 0 10 4 10 9 0 6 -4 13 -10 16 -5 3
-10 -1 -10 -9z"/>
<path d="M1066 860 c18 -19 35 -45 38 -56 6 -21 6 -21 -41 -7 -27 8 -54 17
-60 19 -7 2 -10 10 -7 19 6 15 0 15 -43 -2 -32 -12 -57 -11 -85 3 -15 8 -37
14 -49 14 -21 0 -22 -1 -4 -20 10 -11 14 -21 9 -21 -5 -1 -18 -3 -29 -4 -33
-3 -95 -36 -95 -50 0 -7 23 -24 51 -39 46 -23 62 -26 157 -26 58 0 103 2 101
5 -3 2 -50 5 -106 6 -55 1 -106 5 -113 9 -24 15 2 30 53 31 29 0 46 3 39 6
-22 9 -2 23 35 23 26 0 34 -4 30 -14 -4 -9 2 -13 19 -13 13 0 21 3 19 7 -8 13
25 21 43 10 15 -8 14 -9 -5 -10 -22 0 -22 -1 -5 -18 15 -16 20 -17 37 -5 11 7
28 13 37 13 10 0 23 11 29 24 13 27 -5 60 -58 106 -26 23 -26 22 3 -10z"/>
<path d="M701 826 c-13 -13 -21 -32 -19 -41 2 -12 10 -5 26 24 27 47 25 51 -7
17z"/>
<path d="M890 611 c0 -5 5 -22 10 -37 l11 -28 14 28 c20 39 19 46 -10 46 -14
0 -25 -4 -25 -9z"/>
<path d="M1145 570 c-29 -32 -172 -99 -212 -100 -7 0 -13 11 -13 25 0 31 -17
33 -22 3 -2 -18 -9 -23 -28 -21 -46 2 -102 21 -123 41 -22 19 -77 35 -77 22 0
-4 15 -21 33 -37 17 -17 50 -52 72 -77 22 -26 54 -55 71 -65 40 -24 101 -19
121 9 8 11 21 20 28 20 8 0 21 12 29 28 8 15 31 43 51 62 38 36 100 110 92
110 -2 0 -12 -9 -22 -20z"/>
<path d="M1075 329 c-27 -11 -55 -25 -62 -30 -32 -27 -140 -30 -202 -6 -23 10
-57 17 -77 17 -32 0 -37 -4 -55 -45 l-20 -46 28 -45 c26 -43 30 -45 63 -39 19
4 60 15 90 26 64 23 121 24 158 5 39 -20 95 -29 130 -21 51 11 80 109 51 171
-18 36 -40 39 -104 13z"/>
<path d="M871 104 c0 -11 3 -14 6 -6 3 7 2 16 -1 19 -3 4 -6 -2 -5 -13z"/>
<path d="M881 75 c1 -19 18 -51 18 -35 0 8 -4 22 -9 30 -5 8 -9 11 -9 5z"/>
</g>
</svg>
